# xmcd
#
# Track frame offsets: 
#        150
#        16895
#        32507
#        46727
#        64805
#        82367
#        98045
#        115720
#        132072
#        147710
#
# Disc length: 2131 seconds
#
# Revision: 0
# Processed by: cddbd v1.4PL0 Copyright (c) Steve Scherf et al.
# Submitted via: ExactAudioCopy v0.90b4
#
DISCID=8208510a
DTITLE=Eddie Rabbitt - Radio Romance
DYEAR=1990
DGENRE=Country
TTITLE0=You Can't Run From Love
TTITLE1=Years After You
TTITLE2=Good Night for Falling in Love
TTITLE3=You and I
TTITLE4=You Got Me Now
TTITLE5=Our Love Will Survive
TTITLE6=Stranger in Your Eyes
TTITLE7=Bedroom Eyes
TTITLE8=Laughin' on the Outside
TTITLE9=All My Life, All My Love
EXTD=
EXTT0=
EXTT1=
EXTT2=
EXTT3=
EXTT4=
EXTT5=
EXTT6=
EXTT7=
EXTT8=
EXTT9=
PLAYORDER=
